{
	"asset":{
		"generator":"Khronos glTF Blender I/O v3.5.30",
		"version":"2.0"
	},
	"extensionsUsed":[
		"KHR_materials_transmission",
		"KHR_materials_ior"
	],
	"scene":0,
	"scenes":[
		{
			"name":"Scene",
			"nodes":[
				0,
				1
			]
		}
	],
	"nodes":[
		{
			"mesh":0,
			"name":"Plane",
			"rotation":[
				0.0637417808175087,
				0.7285706996917725,
				0.6794031262397766,
				0.059439949691295624
			],
			"scale":[
				5,
				5.000000476837158,
				5
			],
			"translation":[
				1.433825969696045,
				-7.258240222930908,
				-0.3388270139694214
			]
		},
		{
			"mesh":1,
			"name":"Retopo",
			"rotation":[
				-0.033356279134750366,
				-0.5376620292663574,
				-0.7832762002944946,
				0.3102986216545105
			],
			"scale":[
				1.1226850748062134,
				1.1226850748062134,
				1.1226849555969238
			],
			"translation":[
				-0.5335872173309326,
				-3.575544834136963,
				0.6005191802978516
			]
		}
	],
	"materials":[
		{
			"doubleSided":true,
			"name":"Material.001",
			"pbrMetallicRoughness":{
				"baseColorFactor":[
					0.3672367036342621,
					0.3672367036342621,
					0.3672367036342621,
					1
				],
				"metallicFactor":0,
				"roughnessFactor":0.5
			}
		},
		{
			"doubleSided":true,
			"extensions":{
				"KHR_materials_transmission":{
					"transmissionFactor":0.30000001192092896
				},
				"KHR_materials_ior":{
					"ior":1.4500000476837158
				}
			},
			"name":"bone",
			"pbrMetallicRoughness":{
				"metallicFactor":0,
				"roughnessFactor":0.5
			}
		}
	],
	"meshes":[
		{
			"name":"Plane",
			"primitives":[
				{
					"attributes":{
						"POSITION":0,
						"TEXCOORD_0":1,
						"NORMAL":2
					},
					"indices":3,
					"material":0
				}
			]
		},
		{
			"name":"Plane.001",
			"primitives":[
				{
					"attributes":{
						"POSITION":4,
						"TEXCOORD_0":5,
						"TEXCOORD_1":6,
						"NORMAL":7
					},
					"indices":8,
					"material":1
				}
			]
		}
	],
	"accessors":[
		{
			"bufferView":0,
			"componentType":5126,
			"count":4,
			"max":[
				1,
				0,
				1
			],
			"min":[
				-1,
				0,
				-1
			],
			"type":"VEC3"
		},
		{
			"bufferView":1,
			"componentType":5126,
			"count":4,
			"type":"VEC2"
		},
		{
			"bufferView":2,
			"componentType":5126,
			"count":4,
			"type":"VEC3"
		},
		{
			"bufferView":3,
			"componentType":5123,
			"count":6,
			"type":"SCALAR"
		},
		{
			"bufferView":4,
			"componentType":5126,
			"count":1664,
			"max":[
				0.7113809585571289,
				0.6610288023948669,
				0.8172451257705688
			],
			"min":[
				-0.5875118374824524,
				-0.6500608325004578,
				-0.9386322498321533
			],
			"type":"VEC3"
		},
		{
			"bufferView":5,
			"componentType":5126,
			"count":1664,
			"type":"VEC2"
		},
		{
			"bufferView":6,
			"componentType":5126,
			"count":1664,
			"type":"VEC2"
		},
		{
			"bufferView":7,
			"componentType":5126,
			"count":1664,
			"type":"VEC3"
		},
		{
			"bufferView":8,
			"componentType":5123,
			"count":1698,
			"type":"SCALAR"
		}
	],
	"bufferViews":[
		{
			"buffer":0,
			"byteLength":48,
			"byteOffset":0,
			"target":34962
		},
		{
			"buffer":0,
			"byteLength":32,
			"byteOffset":48,
			"target":34962
		},
		{
			"buffer":0,
			"byteLength":48,
			"byteOffset":80,
			"target":34962
		},
		{
			"buffer":0,
			"byteLength":12,
			"byteOffset":128,
			"target":34963
		},
		{
			"buffer":0,
			"byteLength":19968,
			"byteOffset":140,
			"target":34962
		},
		{
			"buffer":0,
			"byteLength":13312,
			"byteOffset":20108,
			"target":34962
		},
		{
			"buffer":0,
			"byteLength":13312,
			"byteOffset":33420,
			"target":34962
		},
		{
			"buffer":0,
			"byteLength":19968,
			"byteOffset":46732,
			"target":34962
		},
		{
			"buffer":0,
			"byteLength":3396,
			"byteOffset":66700,
			"target":34963
		}
	],
	"buffers":[
		{
			"byteLength":70096,
			"uri":"data:application/octet-stream;base64,"
		}
	]
}
