{
	"asset":{
		"generator":"Khronos glTF Blender I/O v3.5.30",
		"version":"2.0"
	},
	"scene":0,
	"scenes":[
		{
			"name":"Scene",
			"nodes":[
				0,
				1,
				2
			]
		}
	],
	"nodes":[
		{
			"mesh":0,
			"name":"Sphere.002",
			"rotation":[
				0.29491597414016724,
				0.6481302976608276,
				-0.06164482608437538,
				0.6993937492370605
			],
			"translation":[
				-0.9067221879959106,
				-3.644350290298462,
				-0.33512455224990845
			]
		},
		{
			"mesh":1,
			"name":"Torus",
			"rotation":[
				0.30084696412086487,
				0.22215814888477325,
				-0.29136940836906433,
				0.8804775476455688
			],
			"scale":[
				0.5156077146530151,
				0.5156077146530151,
				0.5156077146530151
			],
			"translation":[
				-0.25040915608406067,
				-3.259258508682251,
				0.038923703134059906
			]
		},
		{
			"mesh":2,
			"name":"Suzanne",
			"rotation":[
				-0.5020805597305298,
				-0.6200019121170044,
				0.09373198449611664,
				0.5955897569656372
			],
			"scale":[
				0.5757728815078735,
				0.5757728815078735,
				0.5757728815078735
			],
			"translation":[
				0.5530264377593994,
				-2.681896686553955,
				0.1473313570022583
			]
		}
	],
	"materials":[
		{
			"doubleSided":true,
			"name":"Material.002",
			"pbrMetallicRoughness":{
				"baseColorFactor":[
					0.8000000715255737,
					0.1452781856060028,
					0.007748099509626627,
					1
				],
				"metallicFactor":0,
				"roughnessFactor":0.5
			}
		},
		{
			"doubleSided":true,
			"name":"Material.001",
			"pbrMetallicRoughness":{
				"baseColorFactor":[
					0.5412839651107788,
					0.8000000715255737,
					0.12232859432697296,
					1
				],
				"metallicFactor":0,
				"roughnessFactor":0.5
			}
		},
		{
			"doubleSided":true,
			"name":"Material.003",
			"pbrMetallicRoughness":{
				"baseColorFactor":[
					0.8000000715255737,
					0.06839730590581894,
					0.29389238357543945,
					1
				],
				"metallicFactor":0,
				"roughnessFactor":0.5
			}
		}
	],
	"meshes":[
		{
			"name":"Sphere.003",
			"primitives":[
				{
					"attributes":{
						"POSITION":0,
						"TEXCOORD_0":1,
						"NORMAL":2
					},
					"indices":3,
					"material":0
				}
			]
		},
		{
			"name":"Torus",
			"primitives":[
				{
					"attributes":{
						"POSITION":4,
						"TEXCOORD_0":5,
						"NORMAL":6
					},
					"indices":7,
					"material":1
				}
			]
		},
		{
			"name":"Suzanne",
			"primitives":[
				{
					"attributes":{
						"POSITION":8,
						"TEXCOORD_0":9,
						"NORMAL":10
					},
					"indices":11,
					"material":2
				}
			]
		}
	],
	"accessors":[
		{
			"bufferView":0,
			"componentType":5126,
			"count":210,
			"max":[
				0.19498558342456818,
				0.20000000298023224,
				0.18019378185272217
			],
			"min":[
				-0.19498559832572937,
				-0.20000000298023224,
				-0.20000001788139343
			],
			"type":"VEC3"
		},
		{
			"bufferView":1,
			"componentType":5126,
			"count":210,
			"type":"VEC2"
		},
		{
			"bufferView":2,
			"componentType":5126,
			"count":210,
			"type":"VEC3"
		},
		{
			"bufferView":3,
			"componentType":5123,
			"count":294,
			"type":"SCALAR"
		},
		{
			"bufferView":4,
			"componentType":5126,
			"count":336,
			"max":[
				1.25,
				0.24373197555541992,
				1.25
			],
			"min":[
				-1.25,
				-0.24373197555541992,
				-1.25
			],
			"type":"VEC3"
		},
		{
			"bufferView":5,
			"componentType":5126,
			"count":336,
			"type":"VEC2"
		},
		{
			"bufferView":6,
			"componentType":5126,
			"count":336,
			"type":"VEC3"
		},
		{
			"bufferView":7,
			"componentType":5123,
			"count":504,
			"type":"SCALAR"
		},
		{
			"bufferView":8,
			"componentType":5126,
			"count":1966,
			"max":[
				0.5673828125,
				0.4085156321525574,
				0.3533984422683716
			],
			"min":[
				-0.5673828125,
				-0.4085156321525574,
				-0.3533984422683716
			],
			"type":"VEC3"
		},
		{
			"bufferView":9,
			"componentType":5126,
			"count":1966,
			"type":"VEC2"
		},
		{
			"bufferView":10,
			"componentType":5126,
			"count":1966,
			"type":"VEC3"
		},
		{
			"bufferView":11,
			"componentType":5123,
			"count":2904,
			"type":"SCALAR"
		}
	],
	"bufferViews":[
		{
			"buffer":0,
			"byteLength":2520,
			"byteOffset":0,
			"target":34962
		},
		{
			"buffer":0,
			"byteLength":1680,
			"byteOffset":2520,
			"target":34962
		},
		{
			"buffer":0,
			"byteLength":2520,
			"byteOffset":4200,
			"target":34962
		},
		{
			"buffer":0,
			"byteLength":588,
			"byteOffset":6720,
			"target":34963
		},
		{
			"buffer":0,
			"byteLength":4032,
			"byteOffset":7308,
			"target":34962
		},
		{
			"buffer":0,
			"byteLength":2688,
			"byteOffset":11340,
			"target":34962
		},
		{
			"buffer":0,
			"byteLength":4032,
			"byteOffset":14028,
			"target":34962
		},
		{
			"buffer":0,
			"byteLength":1008,
			"byteOffset":18060,
			"target":34963
		},
		{
			"buffer":0,
			"byteLength":23592,
			"byteOffset":19068,
			"target":34962
		},
		{
			"buffer":0,
			"byteLength":15728,
			"byteOffset":42660,
			"target":34962
		},
		{
			"buffer":0,
			"byteLength":23592,
			"byteOffset":58388,
			"target":34962
		},
		{
			"buffer":0,
			"byteLength":5808,
			"byteOffset":81980,
			"target":34963
		}
	],
	"buffers":[
		{
			"byteLength":87788,
			"uri":"data:application/octet-stream;base64,"
		}
	]
}
