{
	"asset":{
		"generator":"Khronos glTF Blender I/O v3.5.30",
		"version":"2.0"
	},
	"scene":0,
	"scenes":[
		{
			"name":"Scene",
			"nodes":[
				0,
				1,
				2,
				3,
				4,
				5,
				6,
				7,
				8,
				9,
				10
			]
		}
	],
	"nodes":[
		{
			"mesh":0,
			"name":"Cube",
			"rotation":[
				0.3407628536224365,
				0.28443071246147156,
				0.17414727807044983,
				0.879006564617157
			],
			"scale":[
				0.2063923329114914,
				0.20639243721961975,
				0.20639242231845856
			],
			"translation":[
				-0.619015634059906,
				-3.518076181411743,
				0.319311261177063
			]
		},
		{
			"mesh":1,
			"name":"Cube.001",
			"rotation":[
				0.37792399525642395,
				0.5424458980560303,
				0.0601666234433651,
				0.7478675246238708
			],
			"scale":[
				0.0892370417714119,
				0.08923710137605667,
				0.08923710137605667
			],
			"translation":[
				-0.455158531665802,
				-3.518076181411743,
				0.046216100454330444
			]
		},
		{
			"mesh":2,
			"name":"Cube.002",
			"rotation":[
				0.7778679132461548,
				0.04632289335131645,
				0.1737033575773239,
				0.6021653413772583
			],
			"scale":[
				0.07535658776760101,
				0.0753566175699234,
				0.0753566175699234
			],
			"translation":[
				0.030810728669166565,
				-3.518076181411743,
				-0.260490745306015
			]
		},
		{
			"mesh":3,
			"name":"Cube.003",
			"rotation":[
				0.3725658059120178,
				0.7852358222007751,
				-0.08741466701030731,
				0.4867834448814392
			],
			"scale":[
				0.14378722012043,
				0.14378727972507477,
				0.14378727972507477
			],
			"translation":[
				0.7086468935012817,
				-3.518076181411743,
				-0.35992538928985596
			]
		},
		{
			"mesh":4,
			"name":"Cube.004",
			"rotation":[
				-0.15540899336338043,
				0.37723037600517273,
				-0.0643724724650383,
				0.9107148051261902
			],
			"scale":[
				0.04203440994024277,
				0.04203443229198456,
				0.04203443229198456
			],
			"translation":[
				0.7226517200469971,
				-3.518076181411743,
				0.1652575433254242
			]
		},
		{
			"mesh":5,
			"name":"Cube.005",
			"rotation":[
				0.28491050004959106,
				0.0502324104309082,
				0.25548499822616577,
				0.922512948513031
			],
			"scale":[
				0.11018450558185577,
				0.11018455028533936,
				0.11018454283475876
			],
			"translation":[
				0.5882049202919006,
				-3.518076181411743,
				0.40474095940589905
			]
		},
		{
			"mesh":6,
			"name":"Cube.006",
			"rotation":[
				0.332288533449173,
				0.24321240186691284,
				0.18981806933879852,
				0.8912918567657471
			],
			"scale":[
				0.10667572170495987,
				0.10667578130960464,
				0.10667578130960464
			],
			"translation":[
				0.08122825622558594,
				-3.518076181411743,
				0.29410243034362793
			]
		},
		{
			"mesh":7,
			"name":"Cube.007",
			"rotation":[
				0.3535533845424652,
				0.3535533547401428,
				0.1464466154575348,
				0.8535534143447876
			],
			"scale":[
				0.061650220304727554,
				0.06165025010704994,
				0.06165025383234024
			],
			"translation":[
				0.9677370190620422,
				-3.518076181411743,
				0.5279839634895325
			]
		},
		{
			"mesh":8,
			"name":"Cube.008",
			"rotation":[
				0.3535533845424652,
				0.3535533547401428,
				0.1464466154575348,
				0.8535535335540771
			],
			"scale":[
				0.021062133833765984,
				0.02106214314699173,
				0.02106214314699173
			],
			"translation":[
				-1.04196298122406,
				-3.518076181411743,
				0.2422843873500824
			]
		},
		{
			"mesh":9,
			"name":"Cube.009",
			"rotation":[
				0.23687393963336945,
				-0.10872174054384232,
				0.30056166648864746,
				0.9174600839614868
			],
			"scale":[
				0.05053825303912163,
				0.05053827539086342,
				0.05053827539086342
			],
			"translation":[
				-0.8276883959770203,
				-3.518076181411743,
				-0.3627263605594635
			]
		},
		{
			"mesh":10,
			"name":"Cube.010",
			"rotation":[
				0.7741685509681702,
				0.13238254189491272,
				-0.494401752948761,
				0.3724309504032135
			],
			"scale":[
				0.08588520437479019,
				0.08588524907827377,
				0.08588524907827377
			],
			"translation":[
				-0.3235127925872803,
				-3.518076181411743,
				-0.512578547000885
			]
		}
	],
	"materials":[
		{
			"doubleSided":true,
			"name":"Material.001",
			"pbrMetallicRoughness":{
				"baseColorFactor":[
					0.29627102613449097,
					0.1284497082233429,
					0.8000000715255737,
					1
				],
				"metallicFactor":0,
				"roughnessFactor":0.5
			}
		}
	],
	"meshes":[
		{
			"name":"Cube.001",
			"primitives":[
				{
					"attributes":{
						"POSITION":0,
						"TEXCOORD_0":1,
						"NORMAL":2
					},
					"indices":3,
					"material":0
				}
			]
		},
		{
			"name":"Cube.002",
			"primitives":[
				{
					"attributes":{
						"POSITION":4,
						"TEXCOORD_0":5,
						"NORMAL":6
					},
					"indices":3,
					"material":0
				}
			]
		},
		{
			"name":"Cube.003",
			"primitives":[
				{
					"attributes":{
						"POSITION":7,
						"TEXCOORD_0":8,
						"NORMAL":9
					},
					"indices":3,
					"material":0
				}
			]
		},
		{
			"name":"Cube.004",
			"primitives":[
				{
					"attributes":{
						"POSITION":10,
						"TEXCOORD_0":11,
						"NORMAL":12
					},
					"indices":3,
					"material":0
				}
			]
		},
		{
			"name":"Cube.005",
			"primitives":[
				{
					"attributes":{
						"POSITION":13,
						"TEXCOORD_0":14,
						"NORMAL":15
					},
					"indices":3,
					"material":0
				}
			]
		},
		{
			"name":"Cube.006",
			"primitives":[
				{
					"attributes":{
						"POSITION":16,
						"TEXCOORD_0":17,
						"NORMAL":18
					},
					"indices":3,
					"material":0
				}
			]
		},
		{
			"name":"Cube.007",
			"primitives":[
				{
					"attributes":{
						"POSITION":19,
						"TEXCOORD_0":20,
						"NORMAL":21
					},
					"indices":3,
					"material":0
				}
			]
		},
		{
			"name":"Cube.008",
			"primitives":[
				{
					"attributes":{
						"POSITION":22,
						"TEXCOORD_0":23,
						"NORMAL":24
					},
					"indices":3,
					"material":0
				}
			]
		},
		{
			"name":"Cube.009",
			"primitives":[
				{
					"attributes":{
						"POSITION":25,
						"TEXCOORD_0":26,
						"NORMAL":27
					},
					"indices":3,
					"material":0
				}
			]
		},
		{
			"name":"Cube.010",
			"primitives":[
				{
					"attributes":{
						"POSITION":28,
						"TEXCOORD_0":29,
						"NORMAL":30
					},
					"indices":3,
					"material":0
				}
			]
		},
		{
			"name":"Cube.011",
			"primitives":[
				{
					"attributes":{
						"POSITION":31,
						"TEXCOORD_0":32,
						"NORMAL":33
					},
					"indices":3,
					"material":0
				}
			]
		}
	],
	"accessors":[
		{
			"bufferView":0,
			"componentType":5126,
			"count":24,
			"max":[
				1,
				1,
				1
			],
			"min":[
				-1,
				-1,
				-1
			],
			"type":"VEC3"
		},
		{
			"bufferView":1,
			"componentType":5126,
			"count":24,
			"type":"VEC2"
		},
		{
			"bufferView":2,
			"componentType":5126,
			"count":24,
			"type":"VEC3"
		},
		{
			"bufferView":3,
			"componentType":5123,
			"count":36,
			"type":"SCALAR"
		},
		{
			"bufferView":4,
			"componentType":5126,
			"count":24,
			"max":[
				1,
				1,
				1
			],
			"min":[
				-1,
				-1,
				-1
			],
			"type":"VEC3"
		},
		{
			"bufferView":5,
			"componentType":5126,
			"count":24,
			"type":"VEC2"
		},
		{
			"bufferView":6,
			"componentType":5126,
			"count":24,
			"type":"VEC3"
		},
		{
			"bufferView":7,
			"componentType":5126,
			"count":24,
			"max":[
				1,
				1,
				1
			],
			"min":[
				-1,
				-1,
				-1
			],
			"type":"VEC3"
		},
		{
			"bufferView":8,
			"componentType":5126,
			"count":24,
			"type":"VEC2"
		},
		{
			"bufferView":9,
			"componentType":5126,
			"count":24,
			"type":"VEC3"
		},
		{
			"bufferView":10,
			"componentType":5126,
			"count":24,
			"max":[
				1,
				1,
				1
			],
			"min":[
				-1,
				-1,
				-1
			],
			"type":"VEC3"
		},
		{
			"bufferView":11,
			"componentType":5126,
			"count":24,
			"type":"VEC2"
		},
		{
			"bufferView":12,
			"componentType":5126,
			"count":24,
			"type":"VEC3"
		},
		{
			"bufferView":13,
			"componentType":5126,
			"count":24,
			"max":[
				1,
				1,
				1
			],
			"min":[
				-1,
				-1,
				-1
			],
			"type":"VEC3"
		},
		{
			"bufferView":14,
			"componentType":5126,
			"count":24,
			"type":"VEC2"
		},
		{
			"bufferView":15,
			"componentType":5126,
			"count":24,
			"type":"VEC3"
		},
		{
			"bufferView":16,
			"componentType":5126,
			"count":24,
			"max":[
				1,
				1,
				1
			],
			"min":[
				-1,
				-1,
				-1
			],
			"type":"VEC3"
		},
		{
			"bufferView":17,
			"componentType":5126,
			"count":24,
			"type":"VEC2"
		},
		{
			"bufferView":18,
			"componentType":5126,
			"count":24,
			"type":"VEC3"
		},
		{
			"bufferView":19,
			"componentType":5126,
			"count":24,
			"max":[
				1,
				1,
				1
			],
			"min":[
				-1,
				-1,
				-1
			],
			"type":"VEC3"
		},
		{
			"bufferView":20,
			"componentType":5126,
			"count":24,
			"type":"VEC2"
		},
		{
			"bufferView":21,
			"componentType":5126,
			"count":24,
			"type":"VEC3"
		},
		{
			"bufferView":22,
			"componentType":5126,
			"count":24,
			"max":[
				1,
				1,
				1
			],
			"min":[
				-1,
				-1,
				-1
			],
			"type":"VEC3"
		},
		{
			"bufferView":23,
			"componentType":5126,
			"count":24,
			"type":"VEC2"
		},
		{
			"bufferView":24,
			"componentType":5126,
			"count":24,
			"type":"VEC3"
		},
		{
			"bufferView":25,
			"componentType":5126,
			"count":24,
			"max":[
				1,
				1,
				1
			],
			"min":[
				-1,
				-1,
				-1
			],
			"type":"VEC3"
		},
		{
			"bufferView":26,
			"componentType":5126,
			"count":24,
			"type":"VEC2"
		},
		{
			"bufferView":27,
			"componentType":5126,
			"count":24,
			"type":"VEC3"
		},
		{
			"bufferView":28,
			"componentType":5126,
			"count":24,
			"max":[
				1,
				1,
				1
			],
			"min":[
				-1,
				-1,
				-1
			],
			"type":"VEC3"
		},
		{
			"bufferView":29,
			"componentType":5126,
			"count":24,
			"type":"VEC2"
		},
		{
			"bufferView":30,
			"componentType":5126,
			"count":24,
			"type":"VEC3"
		},
		{
			"bufferView":31,
			"componentType":5126,
			"count":24,
			"max":[
				1,
				1,
				1
			],
			"min":[
				-1,
				-1,
				-1
			],
			"type":"VEC3"
		},
		{
			"bufferView":32,
			"componentType":5126,
			"count":24,
			"type":"VEC2"
		},
		{
			"bufferView":33,
			"componentType":5126,
			"count":24,
			"type":"VEC3"
		}
	],
	"bufferViews":[
		{
			"buffer":0,
			"byteLength":288,
			"byteOffset":0,
			"target":34962
		},
		{
			"buffer":0,
			"byteLength":192,
			"byteOffset":288,
			"target":34962
		},
		{
			"buffer":0,
			"byteLength":288,
			"byteOffset":480,
			"target":34962
		},
		{
			"buffer":0,
			"byteLength":72,
			"byteOffset":768,
			"target":34963
		},
		{
			"buffer":0,
			"byteLength":288,
			"byteOffset":840,
			"target":34962
		},
		{
			"buffer":0,
			"byteLength":192,
			"byteOffset":1128,
			"target":34962
		},
		{
			"buffer":0,
			"byteLength":288,
			"byteOffset":1320,
			"target":34962
		},
		{
			"buffer":0,
			"byteLength":288,
			"byteOffset":1608,
			"target":34962
		},
		{
			"buffer":0,
			"byteLength":192,
			"byteOffset":1896,
			"target":34962
		},
		{
			"buffer":0,
			"byteLength":288,
			"byteOffset":2088,
			"target":34962
		},
		{
			"buffer":0,
			"byteLength":288,
			"byteOffset":2376,
			"target":34962
		},
		{
			"buffer":0,
			"byteLength":192,
			"byteOffset":2664,
			"target":34962
		},
		{
			"buffer":0,
			"byteLength":288,
			"byteOffset":2856,
			"target":34962
		},
		{
			"buffer":0,
			"byteLength":288,
			"byteOffset":3144,
			"target":34962
		},
		{
			"buffer":0,
			"byteLength":192,
			"byteOffset":3432,
			"target":34962
		},
		{
			"buffer":0,
			"byteLength":288,
			"byteOffset":3624,
			"target":34962
		},
		{
			"buffer":0,
			"byteLength":288,
			"byteOffset":3912,
			"target":34962
		},
		{
			"buffer":0,
			"byteLength":192,
			"byteOffset":4200,
			"target":34962
		},
		{
			"buffer":0,
			"byteLength":288,
			"byteOffset":4392,
			"target":34962
		},
		{
			"buffer":0,
			"byteLength":288,
			"byteOffset":4680,
			"target":34962
		},
		{
			"buffer":0,
			"byteLength":192,
			"byteOffset":4968,
			"target":34962
		},
		{
			"buffer":0,
			"byteLength":288,
			"byteOffset":5160,
			"target":34962
		},
		{
			"buffer":0,
			"byteLength":288,
			"byteOffset":5448,
			"target":34962
		},
		{
			"buffer":0,
			"byteLength":192,
			"byteOffset":5736,
			"target":34962
		},
		{
			"buffer":0,
			"byteLength":288,
			"byteOffset":5928,
			"target":34962
		},
		{
			"buffer":0,
			"byteLength":288,
			"byteOffset":6216,
			"target":34962
		},
		{
			"buffer":0,
			"byteLength":192,
			"byteOffset":6504,
			"target":34962
		},
		{
			"buffer":0,
			"byteLength":288,
			"byteOffset":6696,
			"target":34962
		},
		{
			"buffer":0,
			"byteLength":288,
			"byteOffset":6984,
			"target":34962
		},
		{
			"buffer":0,
			"byteLength":192,
			"byteOffset":7272,
			"target":34962
		},
		{
			"buffer":0,
			"byteLength":288,
			"byteOffset":7464,
			"target":34962
		},
		{
			"buffer":0,
			"byteLength":288,
			"byteOffset":7752,
			"target":34962
		},
		{
			"buffer":0,
			"byteLength":192,
			"byteOffset":8040,
			"target":34962
		},
		{
			"buffer":0,
			"byteLength":288,
			"byteOffset":8232,
			"target":34962
		}
	],
	"buffers":[
		{
			"byteLength":8520,
			"uri":"data:application/octet-stream;base64,"
		}
	]
}
